<svg xmlns="http://www.w3.org/2000/svg" width="22" height="22" viewBox="0 0 22 22"><defs><style>.a{fill:#fff;}.b{fill:none;}</style></defs><g transform="translate(-718 -735)"><g transform="translate(721.683 735)"><path class="a" d="M16.146,0H6.521A2.523,2.523,0,0,0,4,2.521V19.479A2.523,2.523,0,0,0,6.521,22h9.625a2.523,2.523,0,0,0,2.521-2.521V2.521A2.523,2.523,0,0,0,16.146,0Zm.688,19.25a.917.917,0,0,1-.917.917H6.75a.917.917,0,0,1-.917-.917V2.75a.917.917,0,0,1,.917-.917h.458a.917.917,0,0,1,.917.917.917.917,0,0,0,.917.917h4.583a.917.917,0,0,0,.917-.917.917.917,0,0,1,.917-.917h.458a.917.917,0,0,1,.917.917Z" transform="translate(-4)"/></g><rect class="b" width="22" height="22" transform="translate(718 735)"/></g></svg>